<mxfile host="app.diagrams.net" modified="2024-05-07T15:00:15.096Z" agent="Mozilla/5.0 (Windows NT 10.0; Win64; x64) AppleWebKit/537.36 (KHTML, like Gecko) Chrome/124.0.0.0 Safari/537.36" etag="K2ycz0a-hdbduq9RK1Ft" version="24.3.1" type="github">
  <diagram name="第 1 页" id="Xs-0i049ffFp-tR2_f_Y">
    <mxGraphModel dx="724" dy="366" grid="1" gridSize="10" guides="1" tooltips="1" connect="1" arrows="1" fold="1" page="1" pageScale="1" pageWidth="827" pageHeight="1169" math="0" shadow="0">
      <root>
        <mxCell id="0" />
        <mxCell id="1" parent="0" />
        <mxCell id="yTofglyYoGYgopix7-Y0-29" value="" style="group" vertex="1" connectable="0" parent="1">
          <mxGeometry x="280" y="80" width="320" height="160" as="geometry" />
        </mxCell>
        <mxCell id="yTofglyYoGYgopix7-Y0-1" value="" style="rounded=0;whiteSpace=wrap;html=1;fillColor=none;" vertex="1" parent="yTofglyYoGYgopix7-Y0-29">
          <mxGeometry width="320" height="160" as="geometry" />
        </mxCell>
        <mxCell id="yTofglyYoGYgopix7-Y0-3" value="&lt;font style=&quot;font-size: 16px;&quot; face=&quot;宋体&quot;&gt;&lt;b&gt;智慧农业大棚&lt;/b&gt;&lt;/font&gt;" style="text;html=1;align=center;verticalAlign=middle;whiteSpace=wrap;rounded=0;" vertex="1" parent="yTofglyYoGYgopix7-Y0-29">
          <mxGeometry x="105" y="10" width="110" height="30" as="geometry" />
        </mxCell>
        <mxCell id="yTofglyYoGYgopix7-Y0-11" value="" style="group" vertex="1" connectable="0" parent="yTofglyYoGYgopix7-Y0-29">
          <mxGeometry x="180" y="50" width="120" height="100" as="geometry" />
        </mxCell>
        <mxCell id="yTofglyYoGYgopix7-Y0-8" value="" style="rounded=0;whiteSpace=wrap;html=1;fillColor=none;" vertex="1" parent="yTofglyYoGYgopix7-Y0-11">
          <mxGeometry width="120" height="100" as="geometry" />
        </mxCell>
        <mxCell id="yTofglyYoGYgopix7-Y0-10" value="" style="rounded=0;whiteSpace=wrap;html=1;fillColor=none;" vertex="1" parent="yTofglyYoGYgopix7-Y0-11">
          <mxGeometry y="20" width="120" height="80" as="geometry" />
        </mxCell>
        <mxCell id="yTofglyYoGYgopix7-Y0-14" value="控制部分" style="text;html=1;align=center;verticalAlign=middle;whiteSpace=wrap;rounded=0;fontFamily=宋体;fontStyle=1" vertex="1" parent="yTofglyYoGYgopix7-Y0-11">
          <mxGeometry x="20" y="-5" width="80" height="30" as="geometry" />
        </mxCell>
        <mxCell id="yTofglyYoGYgopix7-Y0-25" value="" style="group" vertex="1" connectable="0" parent="yTofglyYoGYgopix7-Y0-11">
          <mxGeometry x="6" y="34" width="60" height="55" as="geometry" />
        </mxCell>
        <mxCell id="yTofglyYoGYgopix7-Y0-23" value="&lt;font face=&quot;Times New Roman&quot;&gt;&lt;b&gt;LED&lt;/b&gt;&lt;/font&gt;" style="text;html=1;align=center;verticalAlign=middle;whiteSpace=wrap;rounded=0;" vertex="1" parent="yTofglyYoGYgopix7-Y0-25">
          <mxGeometry width="60" height="30" as="geometry" />
        </mxCell>
        <mxCell id="yTofglyYoGYgopix7-Y0-24" value="&lt;b style=&quot;&quot;&gt;&lt;font style=&quot;&quot; face=&quot;宋体&quot;&gt;风扇&lt;/font&gt;&lt;/b&gt;" style="text;html=1;align=center;verticalAlign=middle;whiteSpace=wrap;rounded=0;" vertex="1" parent="yTofglyYoGYgopix7-Y0-25">
          <mxGeometry y="25" width="60" height="30" as="geometry" />
        </mxCell>
        <mxCell id="yTofglyYoGYgopix7-Y0-26" value="" style="shape=image;verticalLabelPosition=bottom;labelBackgroundColor=default;verticalAlign=top;aspect=fixed;imageAspect=0;image=data:image/png,iVBORw0KGgoAAAANSUhEUgAAAMkAAADJCAYAAACJxhYFAAAACXBIWXMAAAsTAAALEwEAmpwYAAAAGXRFWHRTb2Z0d2FyZQBBZG9iZSBJbWFnZVJlYWR5ccllPAAADXRJREFUeNrsnT1zG8kRhgc4Jc42vExQdpmgH6AimDkTmTkTGF4kMGVCMmHZEcnIIclfICizI4KlxJmg7DLhMjvDZQ49DQ10OFoksT2fu/u8VVtUlYAlON0PunumZ9YYhBBCCCGEEEIIIYQQQgihbqrHEJSjo6Ojof1R2Wt5dnY2Z0SABH0FQ6CY2OudA2Stpb0u7XVhgVkyUkDSZUBu7TV85GUSUXYBJZ/6DEFWPQWIcf9/y1ABSRejyHgLQL6B4l6PgKRTehP59QhIGq8q8usRkCAEJAgBCUJAghCQIAQkCAEJQ4AQkCDkpWdt/wOPjo5G9odcO/Za2OuzvaZnZ2cLzF97LAf2x569XtpL/n1nr5kdy1mb/+5eiw0qfVHnDpDvSVrQDzN+vttHPtv3JM64m/HzylhOHvps9jps6x6YfgvhqJxBPz3hhBP7uiviw1ZjevUIIMaN8ycZd9f+DyQFG3PPwTHZ8i1jumufHFMZn23HaOJg2aMmKTB62B9XLl+uq2N7XYPDo+NTR1KrvLc2mdqfB23YLNZvASAS6r8oAVkZ1RWk6PuFunZsxB5fnH2AJHMxKQWwbx4MJHHGZbU92dmJdCvDN9x7s/3OPpRXExdR9ps49d5vICAjV5wHA6Tt8/yFjMvQFfUjIIkLyCRQerUpivZ047NOvyZAEgcQmb0KndvKzMspHDyqQzdOIXXepDWqfgPgqNzq9DgCILu0pzyZcq3GKQIoskZ124TFx37pgLj0KnQeKynEC44S3RoUGacXEVLTkUu/KiDRAbI+lC3kDNb6NMQDTkSsH1Fk3Ow/X7lxDFnQ3zp7A0lmQE6tkV8xk+UfVWQcXS237AIo/YIBCRWC5VtP4DjBxYPCcuJqlVBRpSoVlH7LAVlHD2qP+FGltaD0CwKkCgjIeuaK6JE2qiwDglIBSTxAVjMx1B7JQZHxfhEo/SoKlH5BgIQIsdcuvWLmKg8oS5d+XQcs5qvOQ2K+rqKHAOTQTVGi/LCIHQ4DgXLeaUhcC/U4wK1k3eMC9ywKFLFHiC+tce5W+35GQAQO30Y3SaskvbrGLYsERezyKkBBP8m5zbqfCZAQYXQ9g8X0btmgrLocAoBynmtquJ8BkPV+9ApAAKWGVn6To5DPEUmuPAt1AOkuKEPnP+2FxOWVewACKB632Utdn/QTAjIIUIccAEgrQPGd9TpPecJNykjiW4cIIFPcrBWgTD1BqVKmXUkgsdSfGL+NUxdM87YOFLGnz9rWKNVe+X4CQCQsvvO4xTTnwdYoKihiV5/s4DhF2pUikvikWQsTZtUWlasDZ+di066okLiDk7VplsyA7NOs2PposrKz0c94jWIf0N2PCIhQ7jObdcpMVmdAETv7bNyK+siHmJFEiiptvjilYbFzoFx41CcD498HmBYSz2J9SR3S6fpEm3a9i1XEx4okxx7FOsf9dLs+0X5BVqb+s1TyQOJoHnukWSwYdhuUqUfaNY4RTWJEEi3NpFkoRNp1XDQknlHklDQLbaRd2tmu4NEkdCTRUrxgNgvdA0X8YVFCNAkGiWcUIc1CIf0iaDQJGUm0U74zzshCD0QT8YtZYn+MA4lb7VTXIrgDiuAf41Cr8KEiifTOaD4QUQTFiiaV8dsFGxySd4m/JRDRJFnK5Q2JO+ZFc7ADUQTFjibDEMcQhYgkRBHU6mgSAhJN3rcgiiBFNFkk8s9wkLjNLlXCbwVENKldwPtuyvKNJG8U75GWA5oYkUZTo+vpepMTEg2hU3q0kDLl0n7B5okkHqnWDeZGHtL4j1fK5RNJdijYUYMK+J0ckKhSLcyMAtUmyVIuFSSuw3JAqoUalHINtJ3B2kiiXRvhiCAUIuWaK1OuUUpINPkdtQgKqVkiv1VDoumH+YBdUUBp/ClNJPGoR4gkKHckUdUlmkiiiSJzFhBR4LpE/Gmewn9TQUIUQaVEkySQaIqfO+yJIuguhf8mS7ewJ4qg8tItt7G+br/W0uaPC+yJItQl4ld1a92q7gER/dgUEkVQ06NJXUgG1COoBXXJoDRImPpFMbUsDZLnpFuoBenW85iQaCIJRTuKKY1/RY0ktcXMFmq6f9WFZEQ9glpQl4xiQkI9gtpSl5STbiHUdG0NScyHySOUWnX8uU4k0ay2U7SjFNL42TAGJBr9iv1QAkX1M2oShIAEISBBCEgQAhKEOgzJc4YYJdDzIiBRngY/wH4ogWr7WR1/Jt1CCEiK1TLy61EmSKK2JHdMHyK/vksaxfTjupDQ+h5INie+NtufQDhzr0dhNI8JSW0dHR0NscmD2t/CYHP3OpTJv54pCKwb2mixfziaSNh/ZQ19Yn++NX+cpVnY68a+5oSRCu5f85iQ/Kb4QEPDgdlPwSIgnGw81mLB2QC1/MvE9ONnMQl0YkFxe1gWhj04Kfwrak2yTEQ6QjH9K97slnLVHUhQUZDU9WPN7FbddKDSPhoYocfk/KqK7L9JIBGNMCmKoFEK/9VAojnF+yX2RBH0MoX/aiCZJyIeoRh+NU8Biap459wuFLgeqUyih9zWhsStEmvqkj1MiwJK408LzaPStb1bmmiyg11RQO0k8ls1JHeJyEcopD/dpYREQ6SslwAKClGPiB9VifxWB4nrMdLMcr3BxCiANH401zaN+uwn0VBJJEG5Uq2Z9pf5QHJDyoUalGrdJIfEhi5JtzRdwW8xNfKQxn+Wzl+TRxLRVBMqWVhEyihSKVOtqc/v9YVEG8ImmBwl9JubbJC4vnzNjAEpF0qVai2U+6CCRRJtKBvY0DnG5qhGqiX+MkidaoWC5FL5vneYHiXwl8vskLgFGk04k87gEbZHW0QR8RNVx2+IU2dCHU6nLYyOcQEU0U9uQvzyXkDavyhzxl3fwgq1PorcKgv2FyE+Q8hjTrXUXuEKKIJ/3IT6ACEhuTC6FXhmutBDUWSszE6Wzh/LgsTt+NLOJJyzCo/uASL+cK58+6VmB2KKSCK6Vr6voohH3ynWq8R+GLdw3/gGkBxSmz698mlEQ62JIjLd+0kLiPWhg5CfJ8bzSQ6N/tFlFPHIxw+Wzv+C6ofQN/z48eN/X79+/SejOxPpR/ve3+w9/oWfdDaKTDwykb/ZKPKP0J8p1pOutDNdq1yUp2N1Os3SFutBZ7SiQ+JmFrRhryLtIs3SpPkhZ7Siplsbadfcpk6yQeZHZdpV2Xv8E7/pTBSRCKLd2i2HPPwc67PFfrCoTxE1YT98ZwARO08y+VleSFxP1rVP+KU+6UQd4pNmXcfu/esnGAefKeHKgcJqfDsBWdefWvtGmfJNDokrpnwWd3y/aVDZhbpPpnAQq1hPUrjfK+J/sYW4DMZPylv8ZN8/sPf5gF+1JooIIH/xuMXUAnKa4rP2E46LRJOFx/vHbqEJNR8QnwVD4/zoINXn/SHVL3Ir8Z89B+fP9h6/yvQyrtZYQMT+f/e8zb6NIr+0DhIHysI6uTRVjjxuswcojQbEt748tYBcp/zcvUyDdWv8n6N4kHqwUHZA5GCH3dSfvZ9pzPaNflp4rSt2NHYKkKXzG9MJSNy03S6gAEgNQHZTTPdmr0nu1Sf/trXFf4z/M0v26PMqFhDpx/prgFv9HKMFvuia5N5AnpgwW3elPjnM9W2D/mDT9f70EFFeCvWTnH9Pr5BBvQo0oPOcYRl9A0QmZkL03AXfittYSNzgvjdhHhe3zl+ZIk5vw6EDJESvnayo75fwd/ULGuMDo3tY6X2JgT6xOp8cEBnvT4EAmZuEK+qNiSQRQrVoZr6uzpJ+xbWZZAGjQLcsLmUuKZJsTg2HSpXEcF/YvBUNEBnXL20GpLhIEjGirHJck6i1uiPR48qEfeR4sZMu/RKNsBFRZgFvu+eiyhg39wJk7KJHSEBmpuBZyV4DjBJqevi+UU555EMtO0hKdRwwtVqriGneRkMSEZSVgRwsCzB4cOwHDo4o4186II2BZCPMx9rGCyxp4TCmQV3cvYYZTkK9TDdWwNJYOFbdvE1KdXsNNaKAEvOoIZkJu+xSzeK+gN5GhEM0d4A06kuo11CDhmyge0xizEuXOy9bCEblxlAe/zyI/OskSjeyAbXXcCOPHSwpzuWS6HJjjTxtARx7LmqkWGRdOjiumzpevRYYfOAK+lGiXylGlzRMjjeaNuGb0UUMAeKNG6dUh/3NXIHe6Bqv8ZBsOMKJyfNIufkGNPMSoHFQDDegyHFUbPZ9IEBSRlR5CBq5Pq//HROcDSDkernx71xqRfRoLSSZapU6ziO625gUqONIg43iesf9HBX09zW+9ugUJBvfsJJ+sa8kvi5cetXK5tFe261XSArWVrUuteokJBuwjEycBr2uwtGZBtFe16wLLMABJPVgkZVmdi0+rc616QDJ/9csxw4Wnqj1u5YOjs53R/fwhW+wrFelJbp0+TmNsrYj/WpTtjoDyVPRZZ2KDTrwJy82UqoFHgAkdYGRqPLW5GvviBkxpMa44SA/IAkdYQSW1I2CoWoMgUJ6zGZEDCBJGWUElhJ6pr4XKdY9ZDOiBZCUBM7I/N5nteOizTAyDBIl7lxtseAUGCBpOkDGA5w1EAYQEEIIIYQQQgghhBBCCCGEEEIos/4nwABbwuL0mDMqPAAAAABJRU5ErkJggg==;" vertex="1" parent="yTofglyYoGYgopix7-Y0-11">
          <mxGeometry x="80" y="42.5" width="15" height="15" as="geometry" />
        </mxCell>
        <mxCell id="yTofglyYoGYgopix7-Y0-28" value="" style="shape=image;verticalLabelPosition=bottom;labelBackgroundColor=default;verticalAlign=top;aspect=fixed;imageAspect=0;image=data:image/png,iVBORw0KGgoAAAANSUhEUgAAAMkAAADJCAYAAACJxhYFAAAACXBIWXMAAAsTAAALEwEAmpwYAAAAGXRFWHRTb2Z0d2FyZQBBZG9iZSBJbWFnZVJlYWR5ccllPAAADXRJREFUeNrsnT1zG8kRhgc4Jc42vExQdpmgH6AimDkTmTkTGF4kMGVCMmHZEcnIIclfICizI4KlxJmg7DLhMjvDZQ49DQ10OFoksT2fu/u8VVtUlYAlON0PunumZ9YYhBBCCCGEEEIIIYQQQgihbqrHEJSjo6Ojof1R2Wt5dnY2Z0SABH0FQ6CY2OudA2Stpb0u7XVhgVkyUkDSZUBu7TV85GUSUXYBJZ/6DEFWPQWIcf9/y1ABSRejyHgLQL6B4l6PgKRTehP59QhIGq8q8usRkCAEJAgBCUJAghCQIAQkCAEJQ4AQkCDkpWdt/wOPjo5G9odcO/Za2OuzvaZnZ2cLzF97LAf2x569XtpL/n1nr5kdy1mb/+5eiw0qfVHnDpDvSVrQDzN+vttHPtv3JM64m/HzylhOHvps9jps6x6YfgvhqJxBPz3hhBP7uiviw1ZjevUIIMaN8ycZd9f+DyQFG3PPwTHZ8i1jumufHFMZn23HaOJg2aMmKTB62B9XLl+uq2N7XYPDo+NTR1KrvLc2mdqfB23YLNZvASAS6r8oAVkZ1RWk6PuFunZsxB5fnH2AJHMxKQWwbx4MJHHGZbU92dmJdCvDN9x7s/3OPpRXExdR9ps49d5vICAjV5wHA6Tt8/yFjMvQFfUjIIkLyCRQerUpivZ047NOvyZAEgcQmb0KndvKzMspHDyqQzdOIXXepDWqfgPgqNzq9DgCILu0pzyZcq3GKQIoskZ124TFx37pgLj0KnQeKynEC44S3RoUGacXEVLTkUu/KiDRAbI+lC3kDNb6NMQDTkSsH1Fk3Ow/X7lxDFnQ3zp7A0lmQE6tkV8xk+UfVWQcXS237AIo/YIBCRWC5VtP4DjBxYPCcuJqlVBRpSoVlH7LAVlHD2qP+FGltaD0CwKkCgjIeuaK6JE2qiwDglIBSTxAVjMx1B7JQZHxfhEo/SoKlH5BgIQIsdcuvWLmKg8oS5d+XQcs5qvOQ2K+rqKHAOTQTVGi/LCIHQ4DgXLeaUhcC/U4wK1k3eMC9ywKFLFHiC+tce5W+35GQAQO30Y3SaskvbrGLYsERezyKkBBP8m5zbqfCZAQYXQ9g8X0btmgrLocAoBynmtquJ8BkPV+9ApAAKWGVn6To5DPEUmuPAt1AOkuKEPnP+2FxOWVewACKB632Utdn/QTAjIIUIccAEgrQPGd9TpPecJNykjiW4cIIFPcrBWgTD1BqVKmXUkgsdSfGL+NUxdM87YOFLGnz9rWKNVe+X4CQCQsvvO4xTTnwdYoKihiV5/s4DhF2pUikvikWQsTZtUWlasDZ+di066okLiDk7VplsyA7NOs2PposrKz0c94jWIf0N2PCIhQ7jObdcpMVmdAETv7bNyK+siHmJFEiiptvjilYbFzoFx41CcD498HmBYSz2J9SR3S6fpEm3a9i1XEx4okxx7FOsf9dLs+0X5BVqb+s1TyQOJoHnukWSwYdhuUqUfaNY4RTWJEEi3NpFkoRNp1XDQknlHklDQLbaRd2tmu4NEkdCTRUrxgNgvdA0X8YVFCNAkGiWcUIc1CIf0iaDQJGUm0U74zzshCD0QT8YtZYn+MA4lb7VTXIrgDiuAf41Cr8KEiifTOaD4QUQTFiiaV8dsFGxySd4m/JRDRJFnK5Q2JO+ZFc7ADUQTFjibDEMcQhYgkRBHU6mgSAhJN3rcgiiBFNFkk8s9wkLjNLlXCbwVENKldwPtuyvKNJG8U75GWA5oYkUZTo+vpepMTEg2hU3q0kDLl0n7B5okkHqnWDeZGHtL4j1fK5RNJdijYUYMK+J0ckKhSLcyMAtUmyVIuFSSuw3JAqoUalHINtJ3B2kiiXRvhiCAUIuWaK1OuUUpINPkdtQgKqVkiv1VDoumH+YBdUUBp/ClNJPGoR4gkKHckUdUlmkiiiSJzFhBR4LpE/Gmewn9TQUIUQaVEkySQaIqfO+yJIuguhf8mS7ewJ4qg8tItt7G+br/W0uaPC+yJItQl4ld1a92q7gER/dgUEkVQ06NJXUgG1COoBXXJoDRImPpFMbUsDZLnpFuoBenW85iQaCIJRTuKKY1/RY0ktcXMFmq6f9WFZEQ9glpQl4xiQkI9gtpSl5STbiHUdG0NScyHySOUWnX8uU4k0ay2U7SjFNL42TAGJBr9iv1QAkX1M2oShIAEISBBCEgQAhKEOgzJc4YYJdDzIiBRngY/wH4ogWr7WR1/Jt1CCEiK1TLy61EmSKK2JHdMHyK/vksaxfTjupDQ+h5INie+NtufQDhzr0dhNI8JSW0dHR0NscmD2t/CYHP3OpTJv54pCKwb2mixfziaSNh/ZQ19Yn++NX+cpVnY68a+5oSRCu5f85iQ/Kb4QEPDgdlPwSIgnGw81mLB2QC1/MvE9ONnMQl0YkFxe1gWhj04Kfwrak2yTEQ6QjH9K97slnLVHUhQUZDU9WPN7FbddKDSPhoYocfk/KqK7L9JIBGNMCmKoFEK/9VAojnF+yX2RBH0MoX/aiCZJyIeoRh+NU8Biap459wuFLgeqUyih9zWhsStEmvqkj1MiwJK408LzaPStb1bmmiyg11RQO0k8ls1JHeJyEcopD/dpYREQ6SslwAKClGPiB9VifxWB4nrMdLMcr3BxCiANH401zaN+uwn0VBJJEG5Uq2Z9pf5QHJDyoUalGrdJIfEhi5JtzRdwW8xNfKQxn+Wzl+TRxLRVBMqWVhEyihSKVOtqc/v9YVEG8ImmBwl9JubbJC4vnzNjAEpF0qVai2U+6CCRRJtKBvY0DnG5qhGqiX+MkidaoWC5FL5vneYHiXwl8vskLgFGk04k87gEbZHW0QR8RNVx2+IU2dCHU6nLYyOcQEU0U9uQvzyXkDavyhzxl3fwgq1PorcKgv2FyE+Q8hjTrXUXuEKKIJ/3IT6ACEhuTC6FXhmutBDUWSszE6Wzh/LgsTt+NLOJJyzCo/uASL+cK58+6VmB2KKSCK6Vr6voohH3ynWq8R+GLdw3/gGkBxSmz698mlEQ62JIjLd+0kLiPWhg5CfJ8bzSQ6N/tFlFPHIxw+Wzv+C6ofQN/z48eN/X79+/SejOxPpR/ve3+w9/oWfdDaKTDwykb/ZKPKP0J8p1pOutDNdq1yUp2N1Os3SFutBZ7SiQ+JmFrRhryLtIs3SpPkhZ7Siplsbadfcpk6yQeZHZdpV2Xv8E7/pTBSRCKLd2i2HPPwc67PFfrCoTxE1YT98ZwARO08y+VleSFxP1rVP+KU+6UQd4pNmXcfu/esnGAefKeHKgcJqfDsBWdefWvtGmfJNDokrpnwWd3y/aVDZhbpPpnAQq1hPUrjfK+J/sYW4DMZPylv8ZN8/sPf5gF+1JooIIH/xuMXUAnKa4rP2E46LRJOFx/vHbqEJNR8QnwVD4/zoINXn/SHVL3Ir8Z89B+fP9h6/yvQyrtZYQMT+f/e8zb6NIr+0DhIHysI6uTRVjjxuswcojQbEt748tYBcp/zcvUyDdWv8n6N4kHqwUHZA5GCH3dSfvZ9pzPaNflp4rSt2NHYKkKXzG9MJSNy03S6gAEgNQHZTTPdmr0nu1Sf/trXFf4z/M0v26PMqFhDpx/prgFv9HKMFvuia5N5AnpgwW3elPjnM9W2D/mDT9f70EFFeCvWTnH9Pr5BBvQo0oPOcYRl9A0QmZkL03AXfittYSNzgvjdhHhe3zl+ZIk5vw6EDJESvnayo75fwd/ULGuMDo3tY6X2JgT6xOp8cEBnvT4EAmZuEK+qNiSQRQrVoZr6uzpJ+xbWZZAGjQLcsLmUuKZJsTg2HSpXEcF/YvBUNEBnXL20GpLhIEjGirHJck6i1uiPR48qEfeR4sZMu/RKNsBFRZgFvu+eiyhg39wJk7KJHSEBmpuBZyV4DjBJqevi+UU555EMtO0hKdRwwtVqriGneRkMSEZSVgRwsCzB4cOwHDo4o4186II2BZCPMx9rGCyxp4TCmQV3cvYYZTkK9TDdWwNJYOFbdvE1KdXsNNaKAEvOoIZkJu+xSzeK+gN5GhEM0d4A06kuo11CDhmyge0xizEuXOy9bCEblxlAe/zyI/OskSjeyAbXXcCOPHSwpzuWS6HJjjTxtARx7LmqkWGRdOjiumzpevRYYfOAK+lGiXylGlzRMjjeaNuGb0UUMAeKNG6dUh/3NXIHe6Bqv8ZBsOMKJyfNIufkGNPMSoHFQDDegyHFUbPZ9IEBSRlR5CBq5Pq//HROcDSDkernx71xqRfRoLSSZapU6ziO625gUqONIg43iesf9HBX09zW+9ugUJBvfsJJ+sa8kvi5cetXK5tFe261XSArWVrUuteokJBuwjEycBr2uwtGZBtFe16wLLMABJPVgkZVmdi0+rc616QDJ/9csxw4Wnqj1u5YOjs53R/fwhW+wrFelJbp0+TmNsrYj/WpTtjoDyVPRZZ2KDTrwJy82UqoFHgAkdYGRqPLW5GvviBkxpMa44SA/IAkdYQSW1I2CoWoMgUJ6zGZEDCBJGWUElhJ6pr4XKdY9ZDOiBZCUBM7I/N5nteOizTAyDBIl7lxtseAUGCBpOkDGA5w1EAYQEEIIIYQQQgghhBBCCCGEEEIos/4nwABbwuL0mDMqPAAAAABJRU5ErkJggg==;" vertex="1" parent="yTofglyYoGYgopix7-Y0-11">
          <mxGeometry x="80" y="67" width="15" height="15" as="geometry" />
        </mxCell>
        <mxCell id="yTofglyYoGYgopix7-Y0-12" value="" style="group" vertex="1" connectable="0" parent="yTofglyYoGYgopix7-Y0-29">
          <mxGeometry x="20" y="50" width="120" height="100" as="geometry" />
        </mxCell>
        <mxCell id="yTofglyYoGYgopix7-Y0-7" value="" style="rounded=0;whiteSpace=wrap;html=1;fillColor=none;" vertex="1" parent="yTofglyYoGYgopix7-Y0-12">
          <mxGeometry width="120" height="100" as="geometry" />
        </mxCell>
        <mxCell id="yTofglyYoGYgopix7-Y0-9" value="" style="rounded=0;whiteSpace=wrap;html=1;fillColor=none;" vertex="1" parent="yTofglyYoGYgopix7-Y0-12">
          <mxGeometry y="20" width="120" height="80" as="geometry" />
        </mxCell>
        <mxCell id="yTofglyYoGYgopix7-Y0-13" value="数据显示部分" style="text;html=1;align=center;verticalAlign=middle;whiteSpace=wrap;rounded=0;fontFamily=宋体;fontStyle=1" vertex="1" parent="yTofglyYoGYgopix7-Y0-12">
          <mxGeometry x="20" y="-5" width="80" height="30" as="geometry" />
        </mxCell>
        <mxCell id="yTofglyYoGYgopix7-Y0-5" value="" style="shape=flexArrow;endArrow=classic;html=1;rounded=0;endWidth=8.505747126436782;endSize=6.0183908045977015;width=7.126436781609196;" edge="1" parent="yTofglyYoGYgopix7-Y0-29">
          <mxGeometry width="50" height="50" relative="1" as="geometry">
            <mxPoint x="60" y="24.830000000000013" as="sourcePoint" />
            <mxPoint x="20" y="24.830000000000013" as="targetPoint" />
          </mxGeometry>
        </mxCell>
        <mxCell id="yTofglyYoGYgopix7-Y0-22" value="" style="group;fontStyle=0" vertex="1" connectable="0" parent="yTofglyYoGYgopix7-Y0-29">
          <mxGeometry x="28" y="75" width="91" height="70" as="geometry" />
        </mxCell>
        <mxCell id="yTofglyYoGYgopix7-Y0-15" value="&lt;font face=&quot;宋体&quot;&gt;温&amp;nbsp; 度:&lt;/font&gt;&lt;font face=&quot;Times New Roman&quot;&gt;0℃&lt;/font&gt;" style="text;html=1;align=center;verticalAlign=middle;whiteSpace=wrap;rounded=0;fontStyle=1" vertex="1" parent="yTofglyYoGYgopix7-Y0-22">
          <mxGeometry x="1" width="89" height="30" as="geometry" />
        </mxCell>
        <mxCell id="yTofglyYoGYgopix7-Y0-16" value="湿&amp;nbsp; 度:&lt;font face=&quot;Times New Roman&quot;&gt;0%&lt;/font&gt;" style="text;html=1;align=center;verticalAlign=middle;whiteSpace=wrap;rounded=0;fontFamily=宋体;fontStyle=1" vertex="1" parent="yTofglyYoGYgopix7-Y0-22">
          <mxGeometry y="20" width="89" height="30" as="geometry" />
        </mxCell>
        <mxCell id="yTofglyYoGYgopix7-Y0-18" value="光照强度:&lt;font face=&quot;Times New Roman&quot;&gt;0lx&lt;/font&gt;" style="text;html=1;align=center;verticalAlign=middle;whiteSpace=wrap;rounded=0;fontFamily=宋体;fontStyle=1" vertex="1" parent="yTofglyYoGYgopix7-Y0-22">
          <mxGeometry x="2" y="40" width="89" height="30" as="geometry" />
        </mxCell>
      </root>
    </mxGraphModel>
  </diagram>
</mxfile>
